<svg xmlns="http://www.w3.org/2000/svg" width="159.996" height="77.801" viewBox="0 0 159.996 77.801">
  <path id="Caminho_424" data-name="Caminho 424" d="M-53.191-19.336a2.848,2.848,0,0,1-.527,1.547,3.783,3.783,0,0,1-1.16,1.2,2.381,2.381,0,0,1-.6.211q-.422.105-.9.193t-.914.176q-.439.088-.686.123l.844,5.2q.387,2.426.58,4.869a23.722,23.722,0,0,0,.9,4.834q.07.211.141.387a1.248,1.248,0,0,1,.07.457.915.915,0,0,1-.264.7,1.7,1.7,0,0,1-.633.369,3.381,3.381,0,0,1-.791.158q-.422.035-.773.035h-.492a6.077,6.077,0,0,1-1.67-.176,1.7,1.7,0,0,1-.9-.6,2.4,2.4,0,0,1-.422-1.072q-.105-.65-.246-1.6-.844-6.434-1.9-12.867-2.18.281-4.377.527t-4.412.457l-1.125,6.891q-.07.633-.193,1.723t-.281,2.232q-.158,1.143-.352,2.127A5.44,5.44,0,0,1-74.707.211a2.385,2.385,0,0,1-.387.6.952.952,0,0,1-.668.176A3.559,3.559,0,0,1-77.01.756,3.594,3.594,0,0,1-78.1.123a3.046,3.046,0,0,1-.756-.967,2.791,2.791,0,0,1-.281-1.266,6.388,6.388,0,0,1,.158-1.406q.158-.7.264-1.406.387-2.32.7-4.623t.7-4.588a4.526,4.526,0,0,1-.562-.123,3.883,3.883,0,0,1-.615-.229,1.791,1.791,0,0,1-.51-.352.675.675,0,0,1-.211-.492.964.964,0,0,1,.264-.65,3.728,3.728,0,0,1,.633-.562A5.64,5.64,0,0,1-77.555-17a7.152,7.152,0,0,1,.668-.3q.738-4.922,1.406-9.809t1.2-9.879q.141-1.336.246-2.707t.229-2.742q.123-1.371.316-2.707a24,24,0,0,1,.545-2.672,4.449,4.449,0,0,1,1.055-2.039,2.876,2.876,0,0,1,2.18-.773,4.813,4.813,0,0,1,.826.07,1.856,1.856,0,0,1,.721.281,5.341,5.341,0,0,1,1.9,2.5A44.12,44.12,0,0,1-64.3-42.838q.984,2.9,1.881,6.275t1.635,6.539q.738,3.164,1.266,5.713t.773,3.779q.738-.105,1.477-.193a12.481,12.481,0,0,1,1.477-.088q.352,0,.809.035a2.976,2.976,0,0,1,.861.193,1.7,1.7,0,0,1,.668.457A1.152,1.152,0,0,1-53.191-19.336Zm-11.039-.281q-.914-4.992-1.986-9.9T-68.73-39.3Q-69.363-34-70.1-28.758t-1.582,10.477q1.9-.281,3.744-.615T-64.23-19.617Zm29.25,10.9a2.246,2.246,0,0,1-.193.826,7.7,7.7,0,0,1-.492.984q-.3.51-.65,1.037t-.668.949l-.527.738-.527.914-.457.844q.035.7.105,1.512T-38.25.633q.387,3.621.686,7.383t.3,7.383a24.89,24.89,0,0,1-.316,3.92A11.23,11.23,0,0,1-38.76,22.9a7.276,7.276,0,0,1-2.373,2.619A6.779,6.779,0,0,1-45,26.543a5.782,5.782,0,0,1-2.742-.6,4.987,4.987,0,0,1-1.811-1.6,6.922,6.922,0,0,1-1-2.338,12.012,12.012,0,0,1-.316-2.777,25.777,25.777,0,0,1,.668-5.766A44.569,44.569,0,0,1-48.463,7.7,57.332,57.332,0,0,1-46.02,2.127Q-44.648-.6-43.242-3.094v-.158a2.11,2.11,0,0,0-.035-.3q-.457.844-1.037,1.74a9.224,9.224,0,0,1-1.3,1.6A6.868,6.868,0,0,1-47.2.949a4.023,4.023,0,0,1-1.916.457A4.127,4.127,0,0,1-51.574.7,5.135,5.135,0,0,1-53.139-1.09a8.363,8.363,0,0,1-.826-2.391,13.261,13.261,0,0,1-.246-2.461,21.82,21.82,0,0,1,.158-2.637q.158-1.3.369-2.531.352-1.969.9-4.271a43.258,43.258,0,0,1,1.354-4.57,31.373,31.373,0,0,1,1.881-4.271,13.837,13.837,0,0,1,2.514-3.41l.281-.246a9.173,9.173,0,0,1,1.055-.9,2.055,2.055,0,0,1,1.23-.439,1.159,1.159,0,0,1,.686.211,1.9,1.9,0,0,1,.51.545,3.108,3.108,0,0,1,.334.721A2.434,2.434,0,0,1-42.82-27a1.717,1.717,0,0,1-.316.914h.07a2.821,2.821,0,0,1,2.883,1.969,2.223,2.223,0,0,1,.58.844,2.858,2.858,0,0,1,.193,1.055,5.909,5.909,0,0,1-.035.615,4.472,4.472,0,0,1-.105.615q-.07.316-.105.6a4.265,4.265,0,0,0-.035.527q0,.809.035,2t.105,2.5q.07,1.3.158,2.549t.158,2.162a2.937,2.937,0,0,1,.58-.562,1.3,1.3,0,0,1,.791-.246,1.914,1.914,0,0,1,.9.281,4.524,4.524,0,0,1,.949.7,4.762,4.762,0,0,1,.738.9A1.655,1.655,0,0,1-34.98-8.719ZM-44.648-23.2q0-.211.018-.457a3.092,3.092,0,0,1,.088-.527l-.246.316q-.281.316-.527.6a5.75,5.75,0,0,0-.457.6,13.472,13.472,0,0,0-1.6,3.463,38.83,38.83,0,0,0-1.143,4.465q-.457,2.338-.686,4.588t-.229,3.867q0,.809.035,1.617a4.689,4.689,0,0,0,.352,1.582,5.067,5.067,0,0,0,.809-1.143q.316-.615.6-1.283A23.584,23.584,0,0,0-46.3-9.527q.563-2.285.914-4.711T-44.859-19Q-44.684-21.34-44.648-23.2Zm2.672,37.547q0-2.391-.105-4.482T-42.4,5.379q-.633,1.512-1.283,3.252t-1.143,3.516q-.492,1.775-.809,3.533a18.877,18.877,0,0,0-.316,3.34v.246a15.525,15.525,0,0,0,.105,1.74,2.586,2.586,0,0,0,.668,1.529h.387a1.6,1.6,0,0,0,1.178-.475,3.818,3.818,0,0,0,.791-1.213,8.048,8.048,0,0,0,.492-1.652,16.289,16.289,0,0,0,.246-1.828q.07-.914.088-1.723T-41.977,14.344ZM-30.8.563A5.149,5.149,0,0,1-31.939.422,4.13,4.13,0,0,1-33.1-.035a3.142,3.142,0,0,1-.914-.791,1.805,1.805,0,0,1-.369-1.143q0-.984.088-1.951t.193-1.916V-5.8l.211-2.355q.105-1.266.176-2.777t.123-3.076q.053-1.564.088-3.076t.035-2.777q0-.738-.018-1.494t-.018-1.529q-.035-.668-.035-1.494V-25.91a3.246,3.246,0,0,1,.193-1.213q.193-.475,1.107-.475a4.009,4.009,0,0,1,1.705.422,2.442,2.442,0,0,1,1.248,1.2h-.035a4.309,4.309,0,0,1,.264,1.248q.088.861.123,1.529.6-.914,1.354-1.934a15.813,15.813,0,0,1,1.635-1.881,9.154,9.154,0,0,1,1.863-1.424A4.183,4.183,0,0,1-21.973-29a3.136,3.136,0,0,1,2.25.738A4.3,4.3,0,0,1-18.6-26.42a8.543,8.543,0,0,1,.387,2.355q.035,1.248.035,2.268v.281q0,.422-.018.826a2.431,2.431,0,0,1-.141.738,1.135,1.135,0,0,1-.422.545,1.413,1.413,0,0,1-.826.211,4.936,4.936,0,0,1-1.2-.158,4.511,4.511,0,0,1-1.178-.475,3.377,3.377,0,0,1-.932-.791,1.873,1.873,0,0,1-.422-1.107v-.562a4.531,4.531,0,0,1,.035-.562q0-.176.018-.439t.018-.51a11.231,11.231,0,0,0-1.986,2.777,30.027,30.027,0,0,0-1.547,3.516q-.686,1.863-1.178,3.744t-.844,3.393v.105q-.105,1.09-.141,2.145T-29-5.941q-.035,1.266-.088,2.566t-.193,2.531a1.782,1.782,0,0,1-.4,1.037A1.433,1.433,0,0,1-30.8.563ZM-1.441-14.414a36.833,36.833,0,0,1-.51,6.1A16.816,16.816,0,0,1-4.043-2.566,12.825,12.825,0,0,1-5.168-1,10.232,10.232,0,0,1-6.557.369a6.562,6.562,0,0,1-1.652.984,4.892,4.892,0,0,1-1.881.369A4.934,4.934,0,0,1-12.779,1,6.884,6.884,0,0,1-14.748-.9a11.467,11.467,0,0,1-1.371-2.672,19.7,19.7,0,0,1-.844-3.059,29.1,29.1,0,0,1-.422-3.041q-.123-1.477-.123-2.6,0-1.266.105-2.777t.369-3.094a28.716,28.716,0,0,1,.7-3.129,15.4,15.4,0,0,1,1.143-2.9A11.2,11.2,0,0,1-13.5-26.6,7.575,7.575,0,0,1-11.215-28.3v.035a4.759,4.759,0,0,1,2.25-.6,1.747,1.747,0,0,1,1.09.3,1.114,1.114,0,0,1,.352,1A5,5,0,0,1-4.395-25.7a11.166,11.166,0,0,1,1.846,3.516A20.408,20.408,0,0,1-1.67-18.07,34.581,34.581,0,0,1-1.441-14.414ZM-9.387-23.2a1.692,1.692,0,0,1-1.125-.457,10.557,10.557,0,0,0-1.125,2.338,19.171,19.171,0,0,0-.721,2.707,24.991,24.991,0,0,0-.369,2.795q-.105,1.406-.105,2.637,0,1.02.105,2.619a27.734,27.734,0,0,0,.4,3.217,16.8,16.8,0,0,0,.844,3.023A4.622,4.622,0,0,0-10.055-2.25,4.807,4.807,0,0,0-8.244-4.271,14.206,14.206,0,0,0-7.1-7.312a21.649,21.649,0,0,0,.58-3.34q.158-1.687.158-2.883,0-.879-.105-2.285t-.352-2.865a16.835,16.835,0,0,0-.686-2.725,4.7,4.7,0,0,0-1.107-1.9A2.467,2.467,0,0,1-9.387-23.2ZM22.992-37.828a23.181,23.181,0,0,1-1.107,7,26.79,26.79,0,0,1-3.094,6.574,25.433,25.433,0,0,1-4.764,5.449,19.935,19.935,0,0,1-6.082,3.621q.211,2.918.492,5.8t.773,5.8q.105.527.229,1.09a5.414,5.414,0,0,1,.123,1.16,1.4,1.4,0,0,1-.457,1.23A2.269,2.269,0,0,1,7.8.211,8.978,8.978,0,0,1,6.363.07,5.528,5.528,0,0,1,4.922-.352a2.323,2.323,0,0,1-.932-.791A3.265,3.265,0,0,1,3.656-2.25a38.512,38.512,0,0,1-.721-5.977Q2.812-11.215,2.6-14.2a2.56,2.56,0,0,1-1.16-.369,1.144,1.144,0,0,1-.457-1.037,3.192,3.192,0,0,1,.4-1.477,3.69,3.69,0,0,1,.932-1.2Q2-24.82,2.057-31.254T2.039-44.227a2.493,2.493,0,0,1-.316.105,1.307,1.307,0,0,1-.316.035.994.994,0,0,1-.633-.193,1.584,1.584,0,0,1-.4-.475,2.15,2.15,0,0,1-.229-.615,3,3,0,0,1-.07-.615A1.965,1.965,0,0,1,.6-47.514a5.146,5.146,0,0,1,1.441-.861q0-.387.018-.9a4.027,4.027,0,0,1,.141-.949,1.742,1.742,0,0,1,.4-.738,1.105,1.105,0,0,1,.844-.3,4.526,4.526,0,0,1,1.758.352,2.421,2.421,0,0,1,1.266,1.2q1.23-.211,2.391-.387a15.941,15.941,0,0,1,2.391-.176,12.505,12.505,0,0,1,4.957.932,10.44,10.44,0,0,1,3.691,2.6,11.345,11.345,0,0,1,2.3,3.955A15.057,15.057,0,0,1,22.992-37.828Zm-5.273-.633A10.655,10.655,0,0,0,17.3-41.5a7,7,0,0,0-1.266-2.461A5.879,5.879,0,0,0,13.887-45.6a7.267,7.267,0,0,0-3.059-.6,13.3,13.3,0,0,0-1.916.141,12.508,12.508,0,0,0-1.881.422q0,6.434.088,12.762T7.594-20.18a14.408,14.408,0,0,0,4.113-3.234A22.956,22.956,0,0,0,14.906-28,25.138,25.138,0,0,0,16.98-33.24,19.954,19.954,0,0,0,17.719-38.461ZM33.574,1.02a1.278,1.278,0,0,1-.246.809,1.864,1.864,0,0,1-.615.51,3,3,0,0,1-.809.281,4.074,4.074,0,0,1-.791.088A3.416,3.416,0,0,1,28.969,2,6.455,6.455,0,0,1,27.387.193,10.845,10.845,0,0,1,26.3-2.338q-.422-1.424-.7-2.848t-.422-2.742q-.141-1.318-.211-2.268-.316-3.27-.439-6.645T24.4-23.52q0-9.035.633-17.895,0-.141.018-.316t.018-.352q.035-.738.07-1.705t.105-1.916q.07-.949.158-1.74a4.178,4.178,0,0,1,.229-1.107v.035a1.682,1.682,0,0,1,.387-.738,1.171,1.171,0,0,1,.844-.246A2.981,2.981,0,0,1,29-48.656a2.8,2.8,0,0,1,.879,2.109q0,.281-.018.545t-.053.51q-.035.246-.053.475t-.018.4q-.105,1.371-.158,2.725t-.123,2.725q-.176,3.023-.264,6.029t-.088,6.064q0,1.3.035,3.41t.141,4.588q.105,2.479.3,5.115t.51,5.027q.316,2.391.756,4.324a11.315,11.315,0,0,0,1.037,2.988,2.069,2.069,0,0,1,.615.439,3.679,3.679,0,0,1,.527.668,4.766,4.766,0,0,1,.387.773A2.082,2.082,0,0,1,33.574,1.02ZM49.465-.457a1.141,1.141,0,0,1-.352.967,1.612,1.612,0,0,1-.984.264,2.9,2.9,0,0,1-2.373-.879,5.765,5.765,0,0,1-1.072-2.32q-.105-.492-.211-1t-.176-1a3.3,3.3,0,0,0-.141-.633,3.4,3.4,0,0,1-.141-.668A20.688,20.688,0,0,1,42.979-3.6a11.964,11.964,0,0,1-1.424,2.039A7.438,7.438,0,0,1,39.744-.035a4.21,4.21,0,0,1-2.2.6,3.486,3.486,0,0,1-2.109-.615A4.309,4.309,0,0,1,34.119-1.6a7.182,7.182,0,0,1-.668-2.057A12.673,12.673,0,0,1,33.258-5.8a31.108,31.108,0,0,1,.475-5.186,45.946,45.946,0,0,1,1.318-5.59,48.771,48.771,0,0,1,1.969-5.379,26.665,26.665,0,0,1,2.461-4.518v.035l.211-.316q.387-.527.9-1.143a1.531,1.531,0,0,1,1.213-.615,1.481,1.481,0,0,1,1.16.58,3.672,3.672,0,0,1,.7,1.213,6.389,6.389,0,0,1,1.477.439,2.46,2.46,0,0,1,.879.65,2.048,2.048,0,0,1,.422.9,5.467,5.467,0,0,1,.105,1.107v.527a4.531,4.531,0,0,1-.035.563,5.475,5.475,0,0,0-.035.668v.7a4.478,4.478,0,0,0,.123.914q.123.563.264,1.16l.246,1.3q.176,1.02.3,2.32t.3,2.6q.141,1.336.281,2.584t.281,2.3l.844,5.2.105.6q.07.457.158.844A3.983,3.983,0,0,1,49.465-.457ZM41.414-20.672a1.2,1.2,0,0,0-.035-.229q-.035-.158-.07-.334a27.976,27.976,0,0,0-1.424,3.744,40.537,40.537,0,0,0-1.02,4.113q-.4,2.092-.6,4.184t-.193,3.955v.316a1.156,1.156,0,0,0,.035.281v.035a12.961,12.961,0,0,0,1.459-3.428A44.516,44.516,0,0,0,40.605-12.5q.422-2.338.615-4.535T41.414-20.672ZM65.6-7.875a4.971,4.971,0,0,1-.246,1.512,13.767,13.767,0,0,1-.562,1.477A13.833,13.833,0,0,1,63.773-2.9,9.046,9.046,0,0,1,62.4-1.178,6.281,6.281,0,0,1,60.645.035,5.2,5.2,0,0,1,58.43.492,5.834,5.834,0,0,1,54.809-.6,7.879,7.879,0,0,1,52.523-3.34a12.511,12.511,0,0,1-1.178-3.621,22.32,22.32,0,0,1-.334-3.727q0-1.3.105-3.076t.4-3.674A26.506,26.506,0,0,1,52.4-21.2a14.149,14.149,0,0,1,1.494-3.322,8.028,8.028,0,0,1,2.232-2.373,5.384,5.384,0,0,1,3.146-.914,6.537,6.537,0,0,1,1.125.141,9.312,9.312,0,0,1,1.459.4,4.412,4.412,0,0,1,1.266.7,1.272,1.272,0,0,1,.545,1,.89.89,0,0,1-.475.809,3.448,3.448,0,0,1-1.125.4,8.323,8.323,0,0,1-1.336.141q-.686.018-1.107.018h-.633A6.359,6.359,0,0,0,57.375-21.6a21.486,21.486,0,0,0-.984,3.639A36.554,36.554,0,0,0,55.9-14.15q-.141,1.881-.141,3.076a20.831,20.831,0,0,0,.264,3.322,9.25,9.25,0,0,0,1.072,3.076,4.937,4.937,0,0,0,.51.721.969.969,0,0,0,.756.4q.316,0,.65-.527a7.521,7.521,0,0,0,.615-1.23,11.748,11.748,0,0,0,.457-1.371q.176-.668.246-.984a1.307,1.307,0,0,0,.035-.316v-.352q0-.316.018-.615a1.557,1.557,0,0,1,.088-.475,1.505,1.505,0,0,1,.65-.809,2.149,2.149,0,0,1,1-.211,4.922,4.922,0,0,1,1.125.141,3.918,3.918,0,0,1,1.125.457,2.9,2.9,0,0,1,.879.809A1.944,1.944,0,0,1,65.6-7.875ZM80.789-6.434a4.746,4.746,0,0,1-.58,2.18A8.465,8.465,0,0,1,78.715-2.2,7.948,7.948,0,0,1,76.623-.668a5.132,5.132,0,0,1-2.338.6,5.875,5.875,0,0,1-2.848-.65,6.75,6.75,0,0,1-2.074-1.758,9.582,9.582,0,0,1-1.424-2.514,18.783,18.783,0,0,1-.861-2.9,23.868,23.868,0,0,1-.439-2.988q-.123-1.494-.123-2.725,0-1.055.123-2.5a28.592,28.592,0,0,1,.422-2.988,21.87,21.87,0,0,1,.826-3.059,12.107,12.107,0,0,1,1.318-2.707,6.79,6.79,0,0,1,1.9-1.934,4.488,4.488,0,0,1,2.549-.738,4.387,4.387,0,0,1,2.021.457,4.642,4.642,0,0,1,1.512,1.213,5.557,5.557,0,0,1,.949,1.74,6.3,6.3,0,0,1,.334,2.039,8.253,8.253,0,0,1-.633,2.988A16.617,16.617,0,0,1,76.2-15.961a16.473,16.473,0,0,1-2.25,2.725,10.521,10.521,0,0,1-2.479,1.846q.07.633.281,1.846a19.447,19.447,0,0,0,.58,2.408,10.036,10.036,0,0,0,.879,2.074,1.446,1.446,0,0,0,1.213.879.956.956,0,0,0,.615-.211,2.079,2.079,0,0,0,.475-.562,4.723,4.723,0,0,0,.369-.773q.158-.422.3-.809l.211-.492q.07-.105.088-.141l.053-.105q.246-.457.475-.844a2.073,2.073,0,0,1,.65-.668h-.035a.5.5,0,0,1,.3-.158,2.713,2.713,0,0,1,.3-.018,1.8,1.8,0,0,1,.844.246,3.888,3.888,0,0,1,.844.615,3.44,3.44,0,0,1,.633.809A1.756,1.756,0,0,1,80.789-6.434Zm-6.961-15.5q0-.352-.035-.738a1.862,1.862,0,0,0-.176-.668,6.212,6.212,0,0,0-.861,1.424,12.008,12.008,0,0,0-.615,1.723q-.246.9-.4,1.811T71.508-16.7a12.918,12.918,0,0,0,1.617-2.479A6.068,6.068,0,0,0,73.828-21.937Z" transform="translate(79.207 51.258)" fill="#fff"/>
</svg>
